<?xml version="1.0" standalone="no"?>
<!DOCTYPE svg PUBLIC "-//W3C//DTD SVG 20010904//EN"
 "http://www.w3.org/TR/2001/REC-SVG-20010904/DTD/svg10.dtd">
<svg version="1.0" xmlns="http://www.w3.org/2000/svg"
 width="1200.000000pt" height="1200.000000pt" viewBox="0 0 1200.000000 1200.000000"
 preserveAspectRatio="xMidYMid meet">
<metadata>
Created by potrace 1.11, written by Peter Selinger 2001-2013
</metadata>
<g transform="translate(0.000000,1200.000000) scale(0.100000,-0.100000)"
fill="#000000" stroke="none">
<path d="M4308 10495 c-2 -2 -48 -6 -103 -9 -117 -8 -186 -14 -235 -21 -19 -3
-55 -8 -80 -11 -86 -9 -406 -74 -515 -104 -60 -17 -117 -32 -125 -35 -40 -10
-250 -79 -290 -95 -445 -177 -698 -313 -1090 -587 -300 -209 -678 -582 -934
-918 -25 -33 -49 -65 -54 -70 -26 -31 -228 -344 -275 -426 -135 -236 -278
-560 -366 -829 -44 -136 -97 -327 -105 -375 -2 -16 -5 -30 -6 -30 -3 0 -27
-116 -36 -170 -8 -45 -11 -67 -17 -100 -8 -44 -18 -114 -23 -160 -2 -22 -6
-56 -9 -75 -14 -102 -20 -242 -20 -485 0 -303 6 -390 40 -635 16 -110 17 -120
30 -185 5 -22 9 -47 11 -55 4 -22 17 -84 20 -95 1 -5 4 -21 7 -35 12 -56 28
-119 47 -185 12 -38 23 -79 25 -89 9 -38 68 -213 112 -326 58 -153 137 -326
218 -483 l66 -128 -41 -97 c-48 -112 -136 -341 -174 -457 -15 -44 -30 -87 -33
-95 -3 -8 -7 -19 -9 -25 -1 -5 -12 -41 -24 -80 -48 -156 -127 -444 -135 -490
-2 -16 -9 -45 -14 -63 -5 -18 -10 -35 -10 -37 0 -3 -2 -18 -5 -33 -19 -85 -47
-230 -51 -263 -2 -16 -6 -36 -9 -46 -3 -10 -8 -36 -11 -58 -3 -23 -7 -50 -9
-60 -2 -11 -7 -42 -10 -70 -4 -27 -8 -61 -11 -75 -2 -14 -7 -52 -10 -85 -4
-33 -8 -73 -10 -90 -2 -16 -6 -59 -10 -95 l-5 -65 2342 1 c2045 1 2421 3 2573
19 132 13 178 19 250 30 22 3 54 8 70 11 38 6 172 32 205 39 14 3 36 8 50 11
14 3 52 12 85 21 33 8 67 16 75 18 27 6 191 55 199 59 4 3 18 7 32 10 30 6
188 63 211 76 10 6 23 10 28 10 6 0 30 8 53 19 23 10 87 38 142 62 225 98 467
232 689 381 94 64 333 242 351 262 6 6 26 24 45 40 19 15 73 63 119 105 406
368 741 807 987 1292 l66 130 22 -59 c27 -77 62 -117 129 -147 76 -35 138 -41
427 -40 l255 0 0 460 c0 253 -3 459 -7 458 -5 -2 -59 -3 -121 -3 l-114 0 1
-346 c1 -190 -2 -351 -6 -356 -8 -14 -240 -12 -283 2 -60 20 -65 51 -65 372
l0 282 31 116 31 117 261 1 c144 0 267 1 273 1 7 1 10 162 9 519 0 284 1 522
2 527 2 7 183 10 524 10 286 0 524 2 528 5 9 6 9 833 0 840 -4 3 -241 5 -528
4 -356 0 -521 3 -524 10 -1 6 -2 242 -2 525 1 398 -2 514 -11 518 -7 2 -198 5
-424 6 l-412 2 -52 100 c-85 163 -123 231 -196 349 -81 129 -71 114 -159 237
-38 53 -66 101 -62 106 7 10 166 137 276 219 255 193 564 400 800 537 11 7 31
19 45 28 14 9 52 31 85 49 33 18 105 57 160 88 219 120 612 305 845 397 52 20
109 43 125 50 17 7 53 20 80 30 28 9 57 20 65 24 52 26 640 209 723 225 12 3
88 20 168 40 81 19 162 38 180 41 19 3 41 8 49 10 8 2 29 7 46 9 94 16 188 36
193 42 3 3 -10 3 -29 0 -19 -3 -69 -8 -110 -11 -120 -9 -181 -14 -240 -21 -30
-3 -75 -7 -100 -9 -25 -2 -65 -6 -90 -9 -25 -3 -72 -8 -105 -11 -33 -4 -71 -8
-85 -10 -14 -2 -50 -6 -80 -10 -30 -3 -71 -8 -90 -11 -19 -2 -54 -6 -77 -9
-45 -5 -115 -14 -148 -19 -11 -2 -47 -7 -80 -11 -33 -4 -69 -9 -80 -11 -11 -3
-38 -7 -60 -9 -22 -3 -47 -7 -55 -10 -8 -2 -39 -7 -69 -10 -30 -4 -63 -9 -75
-11 -22 -4 -63 -11 -110 -19 -16 -2 -52 -9 -80 -14 -28 -6 -67 -13 -86 -15
-54 -9 -91 -15 -140 -26 -25 -5 -61 -12 -80 -15 -42 -6 -61 -10 -152 -30 -38
-8 -121 -25 -148 -30 -34 -6 -199 -43 -285 -63 -38 -9 -72 -16 -75 -16 -9 1
-643 -163 -720 -186 -41 -12 -82 -23 -90 -25 -42 -11 -198 -56 -220 -64 -26
-10 -168 -53 -185 -57 -44 -9 -653 -219 -662 -228 -15 -15 -46 -2 -109 47 -38
29 -91 68 -119 87 -27 18 -52 36 -55 40 -17 20 -324 210 -339 210 -5 0 -11 4
-13 8 -7 17 -441 227 -456 222 -2 -1 -13 5 -25 13 -42 27 -488 180 -587 201
-14 3 -74 17 -135 31 -60 14 -121 27 -135 30 -14 2 -36 7 -50 9 -14 3 -42 8
-64 11 -21 3 -41 7 -45 9 -3 2 -35 7 -70 10 -36 4 -79 9 -95 11 -46 6 -145 17
-196 21 -55 5 -548 12 -552 9z"/>
<path d="M10025 4759 c-115 -3 -219 -9 -230 -13 -94 -38 -127 -65 -159 -135
-16 -36 -20 -66 -21 -141 0 -121 26 -183 92 -217 58 -30 95 -35 273 -38 85 -2
172 -3 193 -4 55 -1 100 -47 92 -93 -7 -40 -31 -66 -70 -76 -17 -4 -150 -7
-297 -7 -178 0 -268 -3 -269 -10 -3 -31 -4 -162 -2 -170 4 -13 665 -13 703 -1
80 27 153 118 165 207 21 152 -25 262 -130 310 -60 27 -94 31 -284 34 l-174 2
-24 27 c-39 46 -24 106 31 123 18 6 116 11 217 11 101 1 216 1 255 2 l70 0 -1
89 c0 50 -3 92 -6 95 -9 9 -197 11 -424 5z"/>
</g>
</svg>
